<svg xmlns="http://www.w3.org/2000/svg" xmlns:xlink="http://www.w3.org/1999/xlink" width="500" zoomAndPan="magnify" viewBox="0 0 375 374.999991" height="500" preserveAspectRatio="xMidYMid meet" version="1.0"><defs><clipPath id="20df699d41"><path d="M 9.347656 9.347656 L 280 9.347656 L 280 280 L 9.347656 280 Z M 9.347656 9.347656 " clip-rule="nonzero"/></clipPath></defs><path fill="#000000" d="M 216.574219 238.777344 L 238.765625 216.582031 L 283.828125 261.640625 L 261.636719 283.835938 Z M 216.574219 238.777344 " fill-opacity="1" fill-rule="nonzero"/><path fill="#000000" d="M 354.996094 307.621094 C 364.800781 317.429688 364.800781 333.34375 354.996094 343.164062 L 343.152344 354.996094 C 333.332031 364.816406 317.429688 364.816406 307.621094 354.996094 L 244.15625 291.515625 C 234.335938 281.695312 234.335938 265.792969 244.144531 255.988281 L 255.988281 244.144531 C 265.792969 234.335938 281.722656 234.335938 291.53125 244.144531 Z M 354.996094 307.621094 " fill-opacity="1" fill-rule="nonzero"/><g clip-path="url(#20df699d41)"><path fill="#000000" d="M 144.148438 9.183594 C 69.59375 9.183594 9.183594 69.59375 9.183594 144.148438 C 9.183594 218.699219 69.59375 279.121094 144.148438 279.121094 C 218.699219 279.121094 279.121094 218.699219 279.121094 144.148438 C 279.121094 69.59375 218.699219 9.183594 144.148438 9.183594 Z M 144.148438 254.144531 C 83.378906 254.144531 34.136719 204.914062 34.136719 144.148438 C 34.136719 83.378906 83.378906 34.148438 144.148438 34.148438 C 204.914062 34.148438 254.15625 83.378906 254.15625 144.148438 C 254.15625 204.914062 204.914062 254.144531 144.148438 254.144531 Z M 144.148438 254.144531 " fill-opacity="1" fill-rule="nonzero"/></g><path fill="#000000" d="M 171.820312 210.953125 C 117.984375 210.953125 74.3125 167.296875 74.3125 113.445312 C 74.3125 112.015625 74.464844 110.613281 74.535156 109.183594 C 67.421875 120.679688 63.253906 134.203125 63.253906 148.699219 C 63.253906 190.335938 97.007812 224.074219 138.632812 224.074219 C 154.710938 224.074219 169.566406 219.015625 181.820312 210.445312 C 178.535156 210.800781 175.191406 210.953125 171.820312 210.953125 Z M 171.820312 210.953125 " fill-opacity="1" fill-rule="nonzero"/></svg>