<svg xmlns="http://www.w3.org/2000/svg" xmlns:xlink="http://www.w3.org/1999/xlink" width="750" zoomAndPan="magnify" viewBox="0 0 562.5 179.999997" height="240" preserveAspectRatio="xMidYMid meet" version="1.0"><defs><g/><clipPath id="f9eb03ca64"><path d="M 28.285156 11.367188 L 148 11.367188 L 148 131 L 28.285156 131 Z M 28.285156 11.367188 " clip-rule="nonzero"/></clipPath></defs><path fill="#000000" d="M 119.816406 112.707031 L 129.621094 102.902344 L 149.527344 122.808594 L 139.722656 132.609375 Z M 119.816406 112.707031 " fill-opacity="1" fill-rule="nonzero"/><path fill="#000000" d="M 180.960938 143.117188 C 185.292969 147.449219 185.292969 154.480469 180.960938 158.816406 L 175.730469 164.042969 C 171.390625 168.378906 164.367188 168.378906 160.035156 164.042969 L 132.003906 136.003906 C 127.664062 131.664062 127.664062 124.640625 131.996094 120.308594 L 137.226562 115.078125 C 141.558594 110.746094 148.59375 110.746094 152.925781 115.078125 Z M 180.960938 143.117188 " fill-opacity="1" fill-rule="nonzero"/><g clip-path="url(#f9eb03ca64)"><path fill="#000000" d="M 87.828125 11.292969 C 54.894531 11.292969 28.210938 37.976562 28.210938 70.90625 C 28.210938 103.839844 54.894531 130.527344 87.828125 130.527344 C 120.757812 130.527344 147.445312 103.839844 147.445312 70.90625 C 147.445312 37.976562 120.757812 11.292969 87.828125 11.292969 Z M 87.828125 119.496094 C 60.984375 119.496094 39.234375 97.75 39.234375 70.90625 C 39.234375 44.066406 60.984375 22.320312 87.828125 22.320312 C 114.667969 22.320312 136.417969 44.066406 136.417969 70.90625 C 136.417969 97.75 114.667969 119.496094 87.828125 119.496094 Z M 87.828125 119.496094 " fill-opacity="1" fill-rule="nonzero"/></g><path fill="#000000" d="M 100.050781 100.417969 C 76.269531 100.417969 56.980469 81.132812 56.980469 57.347656 C 56.980469 56.714844 57.046875 56.09375 57.078125 55.464844 C 53.9375 60.542969 52.09375 66.515625 52.09375 72.917969 C 52.09375 91.308594 67.003906 106.214844 85.390625 106.214844 C 92.492188 106.214844 99.054688 103.976562 104.46875 100.191406 C 103.015625 100.351562 101.539062 100.417969 100.050781 100.417969 Z M 100.050781 100.417969 " fill-opacity="1" fill-rule="nonzero"/><g fill="#000000" fill-opacity="1"><g transform="translate(194.800777, 114.016226)"><g><path d="M 108.234375 -62.640625 C 108.109375 -62.085938 107.847656 -61.648438 107.453125 -61.328125 C 107.054688 -61.015625 106.617188 -60.859375 106.140625 -60.859375 C 105.421875 -60.859375 104.84375 -61.085938 104.40625 -61.546875 C 103.96875 -62.003906 103.75 -62.53125 103.75 -63.125 C 103.75 -63.71875 103.804688 -64.300781 103.921875 -64.875 C 104.046875 -65.457031 104.109375 -66.023438 104.109375 -66.578125 C 104.109375 -69.484375 103.210938 -72.085938 101.421875 -74.390625 C 99.628906 -76.703125 97.09375 -78.644531 93.8125 -80.21875 C 90.53125 -81.789062 86.539062 -82.992188 81.84375 -83.828125 C 77.15625 -84.660156 71.929688 -85.078125 66.171875 -85.078125 C 61.753906 -85.078125 57.304688 -84.785156 52.828125 -84.203125 C 48.359375 -83.628906 44.0625 -82.796875 39.9375 -81.703125 C 35.820312 -80.609375 31.972656 -79.234375 28.390625 -77.578125 C 24.816406 -75.929688 21.707031 -74.023438 19.0625 -71.859375 C 16.414062 -69.691406 14.335938 -67.285156 12.828125 -64.640625 C 11.316406 -61.992188 10.5625 -59.101562 10.5625 -55.96875 C 10.5625 -53.539062 11.085938 -51.398438 12.140625 -49.546875 C 13.191406 -47.703125 14.632812 -46.09375 16.46875 -44.71875 C 18.300781 -43.34375 20.457031 -42.164062 22.9375 -41.1875 C 25.425781 -40.21875 28.117188 -39.40625 31.015625 -38.75 C 33.921875 -38.09375 36.945312 -37.554688 40.09375 -37.140625 C 43.238281 -36.722656 46.398438 -36.375 49.578125 -36.09375 L 58.765625 -35.3125 C 63.335938 -34.914062 67.429688 -34.5 71.046875 -34.0625 C 74.671875 -33.625 77.859375 -33.066406 80.609375 -32.390625 C 85.179688 -31.242188 88.5625 -29.59375 90.75 -27.4375 C 92.9375 -25.289062 94.03125 -22.429688 94.03125 -18.859375 C 94.03125 -15.390625 93.070312 -12.34375 91.15625 -9.71875 C 89.25 -7.09375 86.644531 -4.882812 83.34375 -3.09375 C 80.039062 -1.3125 76.179688 0.0351562 71.765625 0.953125 C 67.359375 1.867188 62.628906 2.328125 57.578125 2.328125 C 52.085938 2.328125 47.265625 1.957031 43.109375 1.21875 C 38.953125 0.488281 35.46875 -0.320312 32.65625 -1.21875 C 29.851562 -2.113281 27.71875 -2.9375 26.25 -3.6875 C 24.78125 -4.445312 23.984375 -4.867188 23.859375 -4.953125 C 23.148438 -5.347656 22.796875 -5.984375 22.796875 -6.859375 C 22.796875 -7.535156 23.03125 -8.082031 23.5 -8.5 C 23.976562 -8.914062 24.5 -9.125 25.0625 -9.125 C 25.5 -9.125 25.894531 -9.003906 26.25 -8.765625 C 26.289062 -8.765625 26.976562 -8.414062 28.3125 -7.71875 C 29.644531 -7.03125 31.632812 -6.265625 34.28125 -5.421875 C 36.925781 -4.585938 40.195312 -3.832031 44.09375 -3.15625 C 47.988281 -2.476562 52.519531 -2.140625 57.6875 -2.140625 C 62.820312 -2.140625 67.359375 -2.554688 71.296875 -3.390625 C 75.234375 -4.234375 78.539062 -5.398438 81.21875 -6.890625 C 83.90625 -8.378906 85.9375 -10.128906 87.3125 -12.140625 C 88.6875 -14.148438 89.375 -16.328125 89.375 -18.671875 C 89.375 -20.066406 89.125 -21.269531 88.625 -22.28125 C 88.125 -23.300781 87.4375 -24.175781 86.5625 -24.90625 C 85.6875 -25.644531 84.644531 -26.269531 83.4375 -26.78125 C 82.226562 -27.300781 80.90625 -27.738281 79.46875 -28.09375 C 77.957031 -28.5 76.335938 -28.835938 74.609375 -29.109375 C 72.878906 -29.390625 71.097656 -29.628906 69.265625 -29.828125 C 67.429688 -30.023438 65.585938 -30.203125 63.734375 -30.359375 C 61.890625 -30.523438 60.078125 -30.6875 58.296875 -30.84375 L 49.109375 -31.625 C 41.867188 -32.21875 35.550781 -33.140625 30.15625 -34.390625 C 24.769531 -35.648438 20.285156 -37.265625 16.703125 -39.234375 C 13.117188 -41.203125 10.429688 -43.554688 8.640625 -46.296875 C 6.859375 -49.046875 5.96875 -52.25 5.96875 -55.90625 C 5.96875 -59.644531 6.8125 -63.070312 8.5 -66.1875 C 10.1875 -69.3125 12.492188 -72.125 15.421875 -74.625 C 18.347656 -77.132812 21.769531 -79.3125 25.6875 -81.15625 C 29.601562 -83.007812 33.785156 -84.550781 38.234375 -85.78125 C 42.691406 -87.019531 47.304688 -87.945312 52.078125 -88.5625 C 56.859375 -89.1875 61.554688 -89.5 66.171875 -89.5 C 71.929688 -89.5 76.945312 -89.148438 81.21875 -88.453125 C 85.5 -87.753906 89.160156 -86.859375 92.203125 -85.765625 C 95.242188 -84.671875 97.738281 -83.425781 99.6875 -82.03125 C 101.644531 -80.644531 103.21875 -79.273438 104.40625 -77.921875 C 107.226562 -74.617188 108.640625 -70.859375 108.640625 -66.640625 C 108.640625 -65.242188 108.503906 -63.910156 108.234375 -62.640625 Z M 108.234375 -62.640625 "/></g></g><g transform="translate(295.096909, 114.016226)"><g><path d="M 9.421875 -6.5625 C 10.253906 -5.40625 11.328125 -4.476562 12.640625 -3.78125 C 13.953125 -3.09375 15.566406 -2.75 17.484375 -2.75 C 19.429688 -2.75 21.195312 -3.210938 22.78125 -4.140625 C 24.375 -5.078125 25.828125 -6.300781 27.140625 -7.8125 C 28.453125 -9.320312 29.625 -11.007812 30.65625 -12.875 C 31.695312 -14.75 32.632812 -16.625 33.46875 -18.5 C 33.664062 -18.9375 33.941406 -19.265625 34.296875 -19.484375 C 34.660156 -19.703125 35.0625 -19.8125 35.5 -19.8125 C 36.175781 -19.8125 36.722656 -19.570312 37.140625 -19.09375 C 37.554688 -18.613281 37.765625 -18.097656 37.765625 -17.546875 C 37.765625 -17.347656 37.742188 -17.175781 37.703125 -17.03125 C 37.660156 -16.894531 37.601562 -16.75 37.53125 -16.59375 C 34.78125 -10.539062 31.785156 -5.984375 28.546875 -2.921875 C 25.304688 0.140625 21.640625 1.710938 17.546875 1.796875 C 14.921875 1.796875 12.648438 1.285156 10.734375 0.265625 C 8.828125 -0.742188 7.253906 -2.050781 6.015625 -3.65625 C 4.785156 -5.269531 3.875 -7.09375 3.28125 -9.125 C 2.6875 -11.15625 2.390625 -13.1875 2.390625 -15.21875 C 2.390625 -17.238281 2.632812 -19.101562 3.125 -20.8125 C 3.625 -22.53125 4.34375 -24.023438 5.28125 -25.296875 C 6.21875 -26.566406 7.332031 -27.5625 8.625 -28.28125 C 9.914062 -29 11.335938 -29.359375 12.890625 -29.359375 C 13.804688 -29.359375 14.707031 -29.164062 15.59375 -28.78125 C 16.488281 -28.40625 17.296875 -27.867188 18.015625 -27.171875 C 18.734375 -26.472656 19.3125 -25.628906 19.75 -24.640625 C 20.1875 -23.648438 20.40625 -22.515625 20.40625 -21.234375 C 20.40625 -19.609375 20.125 -18.078125 19.5625 -16.640625 C 19.007812 -15.210938 18.242188 -13.878906 17.265625 -12.640625 C 16.296875 -11.410156 15.132812 -10.28125 13.78125 -9.25 C 12.425781 -8.21875 10.972656 -7.320312 9.421875 -6.5625 Z M 7.640625 -10.4375 C 8.867188 -10.957031 9.988281 -11.613281 11 -12.40625 C 12.019531 -13.207031 12.882812 -14.082031 13.59375 -15.03125 C 14.3125 -15.988281 14.867188 -16.992188 15.265625 -18.046875 C 15.671875 -19.097656 15.875 -20.160156 15.875 -21.234375 C 15.875 -22.429688 15.570312 -23.335938 14.96875 -23.953125 C 14.375 -24.566406 13.679688 -24.875 12.890625 -24.875 C 11.816406 -24.875 10.898438 -24.578125 10.140625 -23.984375 C 9.390625 -23.390625 8.773438 -22.613281 8.296875 -21.65625 C 7.816406 -20.695312 7.46875 -19.628906 7.25 -18.453125 C 7.03125 -17.285156 6.921875 -16.125 6.921875 -14.96875 C 6.921875 -14.257812 6.988281 -13.503906 7.125 -12.703125 C 7.269531 -11.910156 7.441406 -11.15625 7.640625 -10.4375 Z M 7.640625 -10.4375 "/></g></g><g transform="translate(326.301476, 114.016226)"><g><path d="M 48.390625 -16.640625 C 48.222656 -16.328125 47.890625 -15.660156 47.390625 -14.640625 C 46.898438 -13.628906 46.265625 -12.46875 45.484375 -11.15625 C 44.710938 -9.84375 43.804688 -8.46875 42.765625 -7.03125 C 41.734375 -5.601562 40.582031 -4.289062 39.3125 -3.09375 C 38.039062 -1.90625 36.671875 -0.921875 35.203125 -0.140625 C 33.734375 0.628906 32.179688 1.015625 30.546875 1.015625 C 28.242188 1.015625 26.304688 0.28125 24.734375 -1.1875 C 23.160156 -2.664062 22.015625 -4.515625 21.296875 -6.734375 C 19.941406 -4.472656 18.328125 -2.675781 16.453125 -1.34375 C 14.585938 -0.0078125 12.722656 0.65625 10.859375 0.65625 C 9.390625 0.65625 8.054688 0.390625 6.859375 -0.140625 C 5.671875 -0.679688 4.65625 -1.4375 3.8125 -2.40625 C 2.976562 -3.382812 2.332031 -4.53125 1.875 -5.84375 C 1.414062 -7.15625 1.1875 -8.585938 1.1875 -10.140625 C 1.1875 -13.242188 1.710938 -15.976562 2.765625 -18.34375 C 3.828125 -20.707031 5.171875 -22.6875 6.796875 -24.28125 C 8.429688 -25.875 10.234375 -27.066406 12.203125 -27.859375 C 14.171875 -28.660156 16.070312 -29.0625 17.90625 -29.0625 C 19.132812 -29.0625 20.265625 -28.890625 21.296875 -28.546875 C 22.328125 -28.210938 23.210938 -27.84375 23.953125 -27.4375 C 24.691406 -27.039062 25.257812 -26.671875 25.65625 -26.328125 C 26.050781 -25.992188 26.269531 -25.8125 26.3125 -25.78125 C 26.75 -25.257812 26.96875 -24.71875 26.96875 -24.15625 C 26.96875 -23.5625 26.75 -23.035156 26.3125 -22.578125 C 25.875 -22.117188 25.359375 -21.890625 24.765625 -21.890625 C 24.128906 -21.890625 23.59375 -22.109375 23.15625 -22.546875 C 23.070312 -22.628906 22.890625 -22.78125 22.609375 -23 C 22.328125 -23.21875 21.945312 -23.445312 21.46875 -23.6875 C 21 -23.925781 20.4375 -24.132812 19.78125 -24.3125 C 19.125 -24.488281 18.378906 -24.578125 17.546875 -24.578125 C 16.304688 -24.578125 14.988281 -24.296875 13.59375 -23.734375 C 12.207031 -23.179688 10.9375 -22.316406 9.78125 -21.140625 C 8.625 -19.972656 7.660156 -18.503906 6.890625 -16.734375 C 6.117188 -14.960938 5.734375 -12.863281 5.734375 -10.4375 C 5.734375 -9.6875 5.8125 -8.921875 5.96875 -8.140625 C 6.125 -7.367188 6.398438 -6.664062 6.796875 -6.03125 C 7.191406 -5.394531 7.726562 -4.875 8.40625 -4.46875 C 9.082031 -4.070312 9.921875 -3.875 10.921875 -3.875 C 11.628906 -3.875 12.453125 -4.113281 13.390625 -4.59375 C 14.328125 -5.070312 15.222656 -5.804688 16.078125 -6.796875 C 16.929688 -7.796875 17.707031 -9.050781 18.40625 -10.5625 C 19.101562 -12.070312 19.59375 -13.863281 19.875 -15.9375 C 19.945312 -16.488281 20.203125 -16.953125 20.640625 -17.328125 C 21.078125 -17.710938 21.59375 -17.90625 22.1875 -17.90625 C 22.75 -17.90625 23.238281 -17.6875 23.65625 -17.25 C 24.070312 -16.8125 24.300781 -16.3125 24.34375 -15.75 C 24.382812 -14.988281 24.460938 -13.921875 24.578125 -12.546875 C 24.703125 -11.179688 24.972656 -9.820312 25.390625 -8.46875 C 25.804688 -7.113281 26.429688 -5.9375 27.265625 -4.9375 C 28.097656 -3.945312 29.25 -3.453125 30.71875 -3.453125 C 31.675781 -3.453125 32.625 -3.710938 33.5625 -4.234375 C 34.5 -4.753906 35.410156 -5.441406 36.296875 -6.296875 C 37.191406 -7.148438 38.046875 -8.125 38.859375 -9.21875 C 39.679688 -10.3125 40.429688 -11.414062 41.109375 -12.53125 C 41.785156 -13.644531 42.378906 -14.71875 42.890625 -15.75 C 43.410156 -16.78125 43.847656 -17.675781 44.203125 -18.4375 C 44.398438 -18.875 44.6875 -19.210938 45.0625 -19.453125 C 45.445312 -19.691406 45.859375 -19.8125 46.296875 -19.8125 C 46.972656 -19.8125 47.519531 -19.5625 47.9375 -19.0625 C 48.351562 -18.5625 48.5625 -18.035156 48.5625 -17.484375 C 48.5625 -17.203125 48.503906 -16.921875 48.390625 -16.640625 Z M 48.390625 -16.640625 "/></g></g><g transform="translate(368.305329, 114.016226)"><g><path d="M 8.53125 -24.515625 C 8.375 -23.441406 8.175781 -22.4375 7.9375 -21.5 C 7.695312 -20.570312 7.46875 -19.757812 7.25 -19.0625 C 7.03125 -18.363281 6.835938 -17.796875 6.671875 -17.359375 C 6.515625 -16.921875 6.421875 -16.679688 6.390625 -16.640625 C 5.984375 -15.734375 5.285156 -15.28125 4.296875 -15.28125 C 3.734375 -15.28125 3.210938 -15.488281 2.734375 -15.90625 C 2.265625 -16.320312 2.03125 -16.847656 2.03125 -17.484375 C 2.03125 -17.722656 2.066406 -17.898438 2.140625 -18.015625 C 2.222656 -18.140625 2.34375 -18.378906 2.5 -18.734375 C 2.664062 -19.085938 2.863281 -19.679688 3.09375 -20.515625 C 3.332031 -21.359375 3.632812 -22.65625 4 -24.40625 C 3.320312 -24.40625 2.625 -24.421875 1.90625 -24.453125 C 1.1875 -24.492188 0.519531 -24.632812 -0.09375 -24.875 C -0.707031 -25.113281 -1.210938 -25.488281 -1.609375 -26 C -2.003906 -26.519531 -2.203125 -27.238281 -2.203125 -28.15625 C -2.203125 -28.832031 -2.015625 -29.75 -1.640625 -30.90625 C -1.265625 -32.0625 -0.757812 -33.191406 -0.125 -34.296875 C 0.507812 -35.410156 1.222656 -36.375 2.015625 -37.1875 C 2.816406 -38.007812 3.617188 -38.421875 4.421875 -38.421875 C 5.328125 -38.421875 6.066406 -38.082031 6.640625 -37.40625 C 7.222656 -36.726562 7.671875 -35.898438 7.984375 -34.921875 C 8.304688 -33.953125 8.535156 -32.929688 8.671875 -31.859375 C 8.816406 -30.785156 8.890625 -29.851562 8.890625 -29.0625 C 9.566406 -29.0625 10.234375 -29.066406 10.890625 -29.078125 C 11.546875 -29.097656 12.171875 -29.109375 12.765625 -29.109375 C 15.035156 -29.109375 16.765625 -28.609375 17.953125 -27.609375 C 19.148438 -26.617188 19.75 -24.992188 19.75 -22.734375 C 19.75 -21.816406 19.6875 -20.859375 19.5625 -19.859375 C 19.445312 -18.867188 19.304688 -17.847656 19.140625 -16.796875 C 18.984375 -15.742188 18.847656 -14.695312 18.734375 -13.65625 C 18.617188 -12.625 18.5625 -11.613281 18.5625 -10.625 C 18.5625 -9.1875 18.757812 -8 19.15625 -7.0625 C 19.550781 -6.132812 20.046875 -5.390625 20.640625 -4.828125 C 21.234375 -4.273438 21.867188 -3.890625 22.546875 -3.671875 C 23.222656 -3.453125 23.84375 -3.34375 24.40625 -3.34375 C 26.113281 -3.34375 27.722656 -3.898438 29.234375 -5.015625 C 30.742188 -6.128906 32.132812 -7.46875 33.40625 -9.03125 C 34.675781 -10.601562 35.816406 -12.265625 36.828125 -14.015625 C 37.847656 -15.765625 38.695312 -17.296875 39.375 -18.609375 C 39.570312 -18.972656 39.847656 -19.253906 40.203125 -19.453125 C 40.566406 -19.648438 40.945312 -19.75 41.34375 -19.75 C 42.0625 -19.75 42.617188 -19.519531 43.015625 -19.0625 C 43.410156 -18.601562 43.609375 -18.097656 43.609375 -17.546875 C 43.609375 -17.140625 43.53125 -16.78125 43.375 -16.46875 C 42.457031 -14.832031 41.390625 -12.988281 40.171875 -10.9375 C 38.960938 -8.894531 37.582031 -6.976562 36.03125 -5.1875 C 34.476562 -3.394531 32.738281 -1.882812 30.8125 -0.65625 C 28.882812 0.570312 26.769531 1.1875 24.46875 1.1875 C 23.03125 1.1875 21.675781 0.914062 20.40625 0.375 C 19.132812 -0.15625 18.03125 -0.925781 17.09375 -1.9375 C 16.15625 -2.945312 15.40625 -4.195312 14.84375 -5.6875 C 14.289062 -7.1875 14.015625 -8.867188 14.015625 -10.734375 C 14.015625 -12.722656 14.210938 -14.703125 14.609375 -16.671875 C 15.015625 -18.640625 15.21875 -20.519531 15.21875 -22.3125 C 15.21875 -23.070312 15.046875 -23.640625 14.703125 -24.015625 C 14.367188 -24.390625 13.625 -24.578125 12.46875 -24.578125 C 11.914062 -24.578125 11.3125 -24.578125 10.65625 -24.578125 C 10 -24.578125 9.289062 -24.554688 8.53125 -24.515625 Z M 4.53125 -28.9375 C 4.53125 -29.21875 4.519531 -29.582031 4.5 -30.03125 C 4.476562 -30.488281 4.4375 -30.9375 4.375 -31.375 C 4.320312 -31.8125 4.242188 -32.191406 4.140625 -32.515625 C 4.046875 -32.835938 3.9375 -33 3.8125 -33 C 3.695312 -33 3.550781 -32.847656 3.375 -32.546875 C 3.195312 -32.242188 3.003906 -31.882812 2.796875 -31.46875 C 2.597656 -31.050781 2.421875 -30.601562 2.265625 -30.125 C 2.109375 -29.644531 1.988281 -29.25 1.90625 -28.9375 Z M 4.53125 -28.9375 "/></g></g><g transform="translate(405.357024, 114.016226)"><g><path d="M 41.28125 -16.53125 C 41.039062 -16.09375 40.632812 -15.296875 40.0625 -14.140625 C 39.488281 -12.984375 38.710938 -11.675781 37.734375 -10.21875 C 36.765625 -8.769531 35.601562 -7.269531 34.25 -5.71875 C 32.894531 -4.175781 31.34375 -2.753906 29.59375 -1.453125 C 27.84375 -0.160156 25.882812 0.898438 23.71875 1.734375 C 21.550781 2.566406 19.191406 2.984375 16.640625 2.984375 C 14.378906 2.984375 12.375 2.570312 10.625 1.75 C 8.875 0.9375 7.378906 -0.210938 6.140625 -1.703125 C 4.910156 -3.191406 3.976562 -4.945312 3.34375 -6.96875 C 2.707031 -9 2.390625 -11.25 2.390625 -13.71875 C 2.390625 -16.101562 2.726562 -18.335938 3.40625 -20.421875 C 4.082031 -22.515625 5.003906 -24.335938 6.171875 -25.890625 C 7.347656 -27.441406 8.710938 -28.664062 10.265625 -29.5625 C 11.816406 -30.457031 13.46875 -30.90625 15.21875 -30.90625 C 16.53125 -30.90625 17.722656 -30.675781 18.796875 -30.21875 C 19.867188 -29.757812 20.769531 -29.148438 21.5 -28.390625 C 22.238281 -27.640625 22.816406 -26.804688 23.234375 -25.890625 C 23.648438 -24.972656 23.859375 -24.0625 23.859375 -23.15625 C 23.859375 -22.28125 23.75 -21.460938 23.53125 -20.703125 C 23.3125 -19.941406 23.03125 -19.273438 22.6875 -18.703125 C 22.351562 -18.128906 21.96875 -17.671875 21.53125 -17.328125 C 21.09375 -16.992188 20.65625 -16.828125 20.21875 -16.828125 C 19.550781 -16.828125 19.003906 -17.046875 18.578125 -17.484375 C 18.160156 -17.921875 17.953125 -18.457031 17.953125 -19.09375 C 17.953125 -19.40625 18.019531 -19.679688 18.15625 -19.921875 C 18.300781 -20.160156 18.460938 -20.410156 18.640625 -20.671875 C 18.816406 -20.929688 18.972656 -21.25 19.109375 -21.625 C 19.253906 -22 19.328125 -22.488281 19.328125 -23.09375 C 19.328125 -23.925781 18.9375 -24.679688 18.15625 -25.359375 C 17.382812 -26.035156 16.40625 -26.375 15.21875 -26.375 C 14.101562 -26.375 13.035156 -26.035156 12.015625 -25.359375 C 11.003906 -24.679688 10.117188 -23.773438 9.359375 -22.640625 C 8.609375 -21.503906 8.003906 -20.171875 7.546875 -18.640625 C 7.085938 -17.109375 6.859375 -15.488281 6.859375 -13.78125 C 6.859375 -12.144531 7.054688 -10.59375 7.453125 -9.125 C 7.847656 -7.65625 8.441406 -6.351562 9.234375 -5.21875 C 10.035156 -4.082031 11.039062 -3.175781 12.25 -2.5 C 13.46875 -1.820312 14.914062 -1.484375 16.59375 -1.484375 C 18.738281 -1.484375 20.722656 -1.867188 22.546875 -2.640625 C 24.378906 -3.421875 26.050781 -4.40625 27.5625 -5.59375 C 29.070312 -6.789062 30.40625 -8.097656 31.5625 -9.515625 C 32.71875 -10.929688 33.703125 -12.265625 34.515625 -13.515625 C 35.328125 -14.765625 35.960938 -15.859375 36.421875 -16.796875 C 36.878906 -17.734375 37.148438 -18.320312 37.234375 -18.5625 C 37.390625 -18.957031 37.65625 -19.265625 38.03125 -19.484375 C 38.40625 -19.703125 38.8125 -19.8125 39.25 -19.8125 C 39.925781 -19.8125 40.472656 -19.570312 40.890625 -19.09375 C 41.316406 -18.613281 41.53125 -18.078125 41.53125 -17.484375 C 41.53125 -17.242188 41.445312 -16.925781 41.28125 -16.53125 Z M 41.28125 -16.53125 "/></g></g><g transform="translate(440.320458, 114.016226)"><g><path d="M 6.984375 -5.078125 C 7.617188 -6.421875 8.351562 -7.878906 9.1875 -9.453125 C 10.019531 -11.023438 10.910156 -12.632812 11.859375 -14.28125 C 12.816406 -15.9375 13.832031 -17.578125 14.90625 -19.203125 C 15.988281 -20.835938 17.101562 -22.375 18.25 -23.8125 C 19.40625 -25.195312 20.566406 -26.195312 21.734375 -26.8125 C 22.910156 -27.4375 24.019531 -27.75 25.0625 -27.75 C 26.09375 -27.75 26.992188 -27.535156 27.765625 -27.109375 C 28.546875 -26.691406 29.179688 -26.125 29.671875 -25.40625 C 30.171875 -24.695312 30.550781 -23.863281 30.8125 -22.90625 C 31.070312 -21.957031 31.203125 -20.925781 31.203125 -19.8125 C 31.203125 -18.894531 31.113281 -17.671875 30.9375 -16.140625 C 30.757812 -14.609375 30.671875 -13.003906 30.671875 -11.328125 C 30.671875 -10.378906 30.71875 -9.4375 30.8125 -8.5 C 30.914062 -7.5625 31.09375 -6.722656 31.34375 -5.984375 C 31.601562 -5.253906 31.992188 -4.660156 32.515625 -4.203125 C 33.035156 -3.742188 33.710938 -3.515625 34.546875 -3.515625 C 35.492188 -3.515625 36.445312 -3.78125 37.40625 -4.3125 C 38.363281 -4.851562 39.296875 -5.570312 40.203125 -6.46875 C 41.117188 -7.363281 41.992188 -8.359375 42.828125 -9.453125 C 43.671875 -10.546875 44.429688 -11.640625 45.109375 -12.734375 C 45.785156 -13.828125 46.378906 -14.878906 46.890625 -15.890625 C 47.410156 -16.910156 47.828125 -17.757812 48.140625 -18.4375 C 48.546875 -19.351562 49.242188 -19.8125 50.234375 -19.8125 C 50.910156 -19.8125 51.445312 -19.570312 51.84375 -19.09375 C 52.238281 -18.613281 52.4375 -18.097656 52.4375 -17.546875 C 52.4375 -17.222656 52.378906 -16.921875 52.265625 -16.640625 C 52.109375 -16.328125 51.800781 -15.671875 51.34375 -14.671875 C 50.882812 -13.679688 50.265625 -12.53125 49.484375 -11.21875 C 48.710938 -9.90625 47.804688 -8.53125 46.765625 -7.09375 C 45.734375 -5.664062 44.59375 -4.34375 43.34375 -3.125 C 42.09375 -1.914062 40.738281 -0.921875 39.28125 -0.140625 C 37.832031 0.628906 36.3125 1.015625 34.71875 1.015625 C 32.894531 1.015625 31.425781 0.628906 30.3125 -0.140625 C 29.195312 -0.921875 28.328125 -1.90625 27.703125 -3.09375 C 27.085938 -4.289062 26.671875 -5.625 26.453125 -7.09375 C 26.234375 -8.570312 26.125 -10.003906 26.125 -11.390625 C 26.125 -12.109375 26.15625 -12.875 26.21875 -13.6875 C 26.28125 -14.507812 26.347656 -15.316406 26.421875 -16.109375 C 26.503906 -16.898438 26.578125 -17.644531 26.640625 -18.34375 C 26.703125 -19.039062 26.734375 -19.628906 26.734375 -20.109375 C 26.734375 -21.335938 26.5625 -22.171875 26.21875 -22.609375 C 25.882812 -23.046875 25.5 -23.265625 25.0625 -23.265625 C 24.425781 -23.265625 23.695312 -22.894531 22.875 -22.15625 C 22.0625 -21.425781 21.207031 -20.460938 20.3125 -19.265625 C 19.414062 -18.078125 18.519531 -16.734375 17.625 -15.234375 C 16.726562 -13.742188 15.863281 -12.265625 15.03125 -10.796875 C 14.195312 -9.328125 13.441406 -7.925781 12.765625 -6.59375 C 12.085938 -5.257812 11.53125 -4.15625 11.09375 -3.28125 C 10.257812 -1.613281 9.414062 -0.492188 8.5625 0.078125 C 7.707031 0.660156 6.941406 0.953125 6.265625 0.953125 C 5.035156 0.953125 4.09375 0.46875 3.4375 -0.5 C 2.78125 -1.476562 2.453125 -2.664062 2.453125 -4.0625 L 2.453125 -7.8125 C 2.453125 -15.332031 2.457031 -22.503906 2.46875 -29.328125 C 2.488281 -36.148438 2.585938 -42.492188 2.765625 -48.359375 C 2.953125 -54.222656 3.253906 -59.53125 3.671875 -64.28125 C 4.085938 -69.039062 4.710938 -73.097656 5.546875 -76.453125 C 6.378906 -79.816406 7.441406 -82.410156 8.734375 -84.234375 C 10.023438 -86.066406 11.648438 -86.984375 13.609375 -86.984375 C 15.273438 -86.984375 16.679688 -86.523438 17.828125 -85.609375 C 18.984375 -84.703125 19.921875 -83.460938 20.640625 -81.890625 C 21.359375 -80.316406 21.875 -78.484375 22.1875 -76.390625 C 22.507812 -74.304688 22.671875 -72.109375 22.671875 -69.796875 C 22.671875 -65.109375 22.242188 -60.503906 21.390625 -55.984375 C 20.535156 -51.472656 19.390625 -47.066406 17.953125 -42.765625 C 16.523438 -38.472656 14.851562 -34.289062 12.9375 -30.21875 C 11.03125 -26.144531 9.023438 -22.175781 6.921875 -18.3125 C 6.921875 -17.601562 6.921875 -16.75 6.921875 -15.75 C 6.921875 -14.757812 6.921875 -13.765625 6.921875 -12.765625 C 6.921875 -11.773438 6.921875 -10.84375 6.921875 -9.96875 C 6.921875 -9.09375 6.921875 -8.394531 6.921875 -7.875 Z M 6.984375 -27.09375 C 8.648438 -30.75 10.171875 -34.316406 11.546875 -37.796875 C 12.921875 -41.273438 14.09375 -44.742188 15.0625 -48.203125 C 16.039062 -51.660156 16.804688 -55.171875 17.359375 -58.734375 C 17.921875 -62.296875 18.203125 -66.003906 18.203125 -69.859375 C 18.203125 -70.492188 18.171875 -71.507812 18.109375 -72.90625 C 18.046875 -74.300781 17.863281 -75.710938 17.5625 -77.140625 C 17.269531 -78.578125 16.816406 -79.832031 16.203125 -80.90625 C 15.585938 -81.976562 14.722656 -82.515625 13.609375 -82.515625 C 12.734375 -82.515625 11.972656 -81.925781 11.328125 -80.75 C 10.691406 -79.582031 10.132812 -77.992188 9.65625 -75.984375 C 9.1875 -73.972656 8.789062 -71.632812 8.46875 -68.96875 C 8.15625 -66.300781 7.894531 -63.472656 7.6875 -60.484375 C 7.488281 -57.503906 7.335938 -54.441406 7.234375 -51.296875 C 7.140625 -48.160156 7.070312 -45.109375 7.03125 -42.140625 C 7 -39.179688 6.984375 -36.410156 6.984375 -33.828125 C 6.984375 -31.242188 6.984375 -29 6.984375 -27.09375 Z M 6.984375 -27.09375 "/></g></g></g><g fill="#a6b6f8" fill-opacity="1"><g transform="translate(325.054604, 151.604592)"><g><path d="M 2.453125 0 L 2.453125 -17.828125 L 4.515625 -17.828125 L 4.515625 0 Z M 2.453125 0 "/></g></g></g><g fill="#a6b6f8" fill-opacity="1"><g transform="translate(332.017546, 151.604592)"><g><path d="M 19.171875 0 L 19.171875 -8.6875 C 19.171875 -9.757812 18.941406 -10.5625 18.484375 -11.09375 C 18.035156 -11.625 17.332031 -11.890625 16.375 -11.890625 C 15.113281 -11.890625 14.179688 -11.523438 13.578125 -10.796875 C 12.972656 -10.078125 12.671875 -8.96875 12.671875 -7.46875 L 12.671875 0 L 10.65625 0 L 10.65625 -8.6875 C 10.65625 -9.757812 10.425781 -10.5625 9.96875 -11.09375 C 9.519531 -11.625 8.8125 -11.890625 7.84375 -11.890625 C 6.570312 -11.890625 5.640625 -11.507812 5.046875 -10.75 C 4.460938 -9.988281 4.171875 -8.742188 4.171875 -7.015625 L 4.171875 0 L 2.140625 0 L 2.140625 -13.359375 L 3.796875 -13.359375 L 4.125 -11.53125 L 4.21875 -11.53125 C 4.601562 -12.1875 5.140625 -12.695312 5.828125 -13.0625 C 6.523438 -13.425781 7.304688 -13.609375 8.171875 -13.609375 C 10.253906 -13.609375 11.617188 -12.851562 12.265625 -11.34375 L 12.359375 -11.34375 C 12.753906 -12.039062 13.332031 -12.59375 14.09375 -13 C 14.851562 -13.40625 15.710938 -13.609375 16.671875 -13.609375 C 18.191406 -13.609375 19.328125 -13.21875 20.078125 -12.4375 C 20.828125 -11.664062 21.203125 -10.425781 21.203125 -8.71875 L 21.203125 0 Z M 19.171875 0 "/></g></g></g><g fill="#a6b6f8" fill-opacity="1"><g transform="translate(355.247663, 151.604592)"><g><path d="M 10.359375 0 L 9.953125 -1.90625 L 9.859375 -1.90625 C 9.191406 -1.0625 8.523438 -0.488281 7.859375 -0.1875 C 7.203125 0.101562 6.378906 0.25 5.390625 0.25 C 4.066406 0.25 3.023438 -0.0859375 2.265625 -0.765625 C 1.515625 -1.453125 1.140625 -2.425781 1.140625 -3.6875 C 1.140625 -6.382812 3.300781 -7.800781 7.625 -7.9375 L 9.890625 -8.015625 L 9.890625 -8.84375 C 9.890625 -9.882812 9.660156 -10.65625 9.203125 -11.15625 C 8.753906 -11.65625 8.035156 -11.90625 7.046875 -11.90625 C 5.929688 -11.90625 4.671875 -11.566406 3.265625 -10.890625 L 2.640625 -12.4375 C 3.304688 -12.789062 4.03125 -13.066406 4.8125 -13.265625 C 5.59375 -13.472656 6.378906 -13.578125 7.171875 -13.578125 C 8.765625 -13.578125 9.941406 -13.222656 10.703125 -12.515625 C 11.472656 -11.804688 11.859375 -10.675781 11.859375 -9.125 L 11.859375 0 Z M 5.796875 -1.421875 C 7.054688 -1.421875 8.046875 -1.765625 8.765625 -2.453125 C 9.484375 -3.148438 9.84375 -4.117188 9.84375 -5.359375 L 9.84375 -6.578125 L 7.8125 -6.484375 C 6.207031 -6.429688 5.046875 -6.179688 4.328125 -5.734375 C 3.617188 -5.296875 3.265625 -4.609375 3.265625 -3.671875 C 3.265625 -2.941406 3.484375 -2.382812 3.921875 -2 C 4.367188 -1.613281 4.992188 -1.421875 5.796875 -1.421875 Z M 5.328125 -15.4375 C 5.710938 -15.9375 6.128906 -16.546875 6.578125 -17.265625 C 7.035156 -17.984375 7.394531 -18.601562 7.65625 -19.125 L 10.109375 -19.125 L 10.109375 -18.875 C 9.753906 -18.34375 9.222656 -17.691406 8.515625 -16.921875 C 7.804688 -16.148438 7.191406 -15.550781 6.671875 -15.125 L 5.328125 -15.125 Z M 5.328125 -15.4375 "/></g></g></g><g fill="#a6b6f8" fill-opacity="1"><g transform="translate(369.136958, 151.604592)"><g><path d="M 13.078125 -13.359375 L 13.078125 -12.078125 L 10.609375 -11.796875 C 10.835938 -11.503906 11.039062 -11.128906 11.21875 -10.671875 C 11.394531 -10.210938 11.484375 -9.695312 11.484375 -9.125 C 11.484375 -7.8125 11.035156 -6.765625 10.140625 -5.984375 C 9.242188 -5.203125 8.019531 -4.8125 6.46875 -4.8125 C 6.0625 -4.8125 5.6875 -4.84375 5.34375 -4.90625 C 4.476562 -4.457031 4.046875 -3.882812 4.046875 -3.1875 C 4.046875 -2.820312 4.195312 -2.550781 4.5 -2.375 C 4.800781 -2.207031 5.316406 -2.125 6.046875 -2.125 L 8.40625 -2.125 C 9.851562 -2.125 10.960938 -1.816406 11.734375 -1.203125 C 12.515625 -0.597656 12.90625 0.285156 12.90625 1.453125 C 12.90625 2.929688 12.3125 4.054688 11.125 4.828125 C 9.9375 5.609375 8.207031 6 5.9375 6 C 4.1875 6 2.835938 5.671875 1.890625 5.015625 C 0.941406 4.367188 0.46875 3.453125 0.46875 2.265625 C 0.46875 1.453125 0.726562 0.75 1.25 0.15625 C 1.769531 -0.4375 2.503906 -0.835938 3.453125 -1.046875 C 3.109375 -1.203125 2.820312 -1.441406 2.59375 -1.765625 C 2.363281 -2.085938 2.25 -2.46875 2.25 -2.90625 C 2.25 -3.394531 2.378906 -3.820312 2.640625 -4.1875 C 2.898438 -4.550781 3.304688 -4.90625 3.859375 -5.25 C 3.171875 -5.53125 2.609375 -6.007812 2.171875 -6.6875 C 1.742188 -7.375 1.53125 -8.15625 1.53125 -9.03125 C 1.53125 -10.5 1.96875 -11.628906 2.84375 -12.421875 C 3.71875 -13.210938 4.960938 -13.609375 6.578125 -13.609375 C 7.273438 -13.609375 7.90625 -13.523438 8.46875 -13.359375 Z M 2.421875 2.25 C 2.421875 2.96875 2.722656 3.515625 3.328125 3.890625 C 3.941406 4.265625 4.820312 4.453125 5.96875 4.453125 C 7.664062 4.453125 8.921875 4.195312 9.734375 3.6875 C 10.546875 3.175781 10.953125 2.488281 10.953125 1.625 C 10.953125 0.894531 10.726562 0.390625 10.28125 0.109375 C 9.84375 -0.171875 9.003906 -0.3125 7.765625 -0.3125 L 5.34375 -0.3125 C 4.425781 -0.3125 3.707031 -0.09375 3.1875 0.34375 C 2.675781 0.789062 2.421875 1.425781 2.421875 2.25 Z M 3.515625 -9.078125 C 3.515625 -8.148438 3.78125 -7.445312 4.3125 -6.96875 C 4.84375 -6.488281 5.578125 -6.25 6.515625 -6.25 C 8.492188 -6.25 9.484375 -7.207031 9.484375 -9.125 C 9.484375 -11.125 8.484375 -12.125 6.484375 -12.125 C 5.535156 -12.125 4.800781 -11.867188 4.28125 -11.359375 C 3.769531 -10.847656 3.515625 -10.085938 3.515625 -9.078125 Z M 3.515625 -9.078125 "/></g></g></g><g fill="#a6b6f8" fill-opacity="1"><g transform="translate(382.818944, 151.604592)"><g><path d="M 7.796875 0.25 C 5.816406 0.25 4.253906 -0.347656 3.109375 -1.546875 C 1.972656 -2.753906 1.40625 -4.429688 1.40625 -6.578125 C 1.40625 -8.722656 1.929688 -10.429688 2.984375 -11.703125 C 4.046875 -12.972656 5.472656 -13.609375 7.265625 -13.609375 C 8.941406 -13.609375 10.265625 -13.054688 11.234375 -11.953125 C 12.210938 -10.847656 12.703125 -9.394531 12.703125 -7.59375 L 12.703125 -6.3125 L 3.5 -6.3125 C 3.539062 -4.75 3.9375 -3.5625 4.6875 -2.75 C 5.4375 -1.9375 6.492188 -1.53125 7.859375 -1.53125 C 9.296875 -1.53125 10.71875 -1.828125 12.125 -2.421875 L 12.125 -0.625 C 11.414062 -0.3125 10.738281 -0.0859375 10.09375 0.046875 C 9.457031 0.179688 8.691406 0.25 7.796875 0.25 Z M 7.234375 -11.90625 C 6.160156 -11.90625 5.304688 -11.554688 4.671875 -10.859375 C 4.035156 -10.160156 3.660156 -9.195312 3.546875 -7.96875 L 10.53125 -7.96875 C 10.53125 -9.238281 10.242188 -10.210938 9.671875 -10.890625 C 9.109375 -11.566406 8.296875 -11.90625 7.234375 -11.90625 Z M 7.234375 -11.90625 "/></g></g></g><g fill="#a6b6f8" fill-opacity="1"><g transform="translate(396.830182, 151.604592)"><g><path d="M 11.296875 0 L 11.296875 -8.640625 C 11.296875 -9.734375 11.046875 -10.546875 10.546875 -11.078125 C 10.046875 -11.617188 9.269531 -11.890625 8.21875 -11.890625 C 6.820312 -11.890625 5.796875 -11.507812 5.140625 -10.75 C 4.492188 -10 4.171875 -8.753906 4.171875 -7.015625 L 4.171875 0 L 2.140625 0 L 2.140625 -13.359375 L 3.796875 -13.359375 L 4.125 -11.53125 L 4.21875 -11.53125 C 4.632812 -12.1875 5.210938 -12.695312 5.953125 -13.0625 C 6.703125 -13.425781 7.539062 -13.609375 8.46875 -13.609375 C 10.070312 -13.609375 11.28125 -13.21875 12.09375 -12.4375 C 12.90625 -11.664062 13.3125 -10.425781 13.3125 -8.71875 L 13.3125 0 Z M 11.296875 0 "/></g></g></g><g fill="#a6b6f8" fill-opacity="1"><g transform="translate(412.158402, 151.604592)"><g><path d="M 7.796875 0.25 C 5.816406 0.25 4.253906 -0.347656 3.109375 -1.546875 C 1.972656 -2.753906 1.40625 -4.429688 1.40625 -6.578125 C 1.40625 -8.722656 1.929688 -10.429688 2.984375 -11.703125 C 4.046875 -12.972656 5.472656 -13.609375 7.265625 -13.609375 C 8.941406 -13.609375 10.265625 -13.054688 11.234375 -11.953125 C 12.210938 -10.847656 12.703125 -9.394531 12.703125 -7.59375 L 12.703125 -6.3125 L 3.5 -6.3125 C 3.539062 -4.75 3.9375 -3.5625 4.6875 -2.75 C 5.4375 -1.9375 6.492188 -1.53125 7.859375 -1.53125 C 9.296875 -1.53125 10.71875 -1.828125 12.125 -2.421875 L 12.125 -0.625 C 11.414062 -0.3125 10.738281 -0.0859375 10.09375 0.046875 C 9.457031 0.179688 8.691406 0.25 7.796875 0.25 Z M 7.234375 -11.90625 C 6.160156 -11.90625 5.304688 -11.554688 4.671875 -10.859375 C 4.035156 -10.160156 3.660156 -9.195312 3.546875 -7.96875 L 10.53125 -7.96875 C 10.53125 -9.238281 10.242188 -10.210938 9.671875 -10.890625 C 9.109375 -11.566406 8.296875 -11.90625 7.234375 -11.90625 Z M 7.234375 -11.90625 "/></g></g></g><g fill="#a6b6f8" fill-opacity="1"><g transform="translate(426.16964, 151.604592)"><g><path d="M 10.765625 -3.640625 C 10.765625 -2.398438 10.300781 -1.441406 9.375 -0.765625 C 8.445312 -0.0859375 7.144531 0.25 5.46875 0.25 C 3.695312 0.25 2.316406 -0.03125 1.328125 -0.59375 L 1.328125 -2.46875 C 1.972656 -2.144531 2.660156 -1.890625 3.390625 -1.703125 C 4.128906 -1.515625 4.835938 -1.421875 5.515625 -1.421875 C 6.578125 -1.421875 7.390625 -1.585938 7.953125 -1.921875 C 8.523438 -2.265625 8.8125 -2.78125 8.8125 -3.46875 C 8.8125 -3.988281 8.585938 -4.429688 8.140625 -4.796875 C 7.691406 -5.171875 6.8125 -5.613281 5.5 -6.125 C 4.257812 -6.582031 3.375 -6.984375 2.84375 -7.328125 C 2.320312 -7.671875 1.929688 -8.0625 1.671875 -8.5 C 1.421875 -8.945312 1.296875 -9.472656 1.296875 -10.078125 C 1.296875 -11.171875 1.738281 -12.03125 2.625 -12.65625 C 3.507812 -13.289062 4.722656 -13.609375 6.265625 -13.609375 C 7.703125 -13.609375 9.109375 -13.316406 10.484375 -12.734375 L 9.765625 -11.078125 C 8.421875 -11.628906 7.207031 -11.90625 6.125 -11.90625 C 5.164062 -11.90625 4.441406 -11.753906 3.953125 -11.453125 C 3.460938 -11.160156 3.21875 -10.75 3.21875 -10.21875 C 3.21875 -9.863281 3.304688 -9.554688 3.484375 -9.296875 C 3.671875 -9.046875 3.96875 -8.804688 4.375 -8.578125 C 4.78125 -8.347656 5.5625 -8.019531 6.71875 -7.59375 C 8.300781 -7.019531 9.367188 -6.4375 9.921875 -5.84375 C 10.484375 -5.257812 10.765625 -4.523438 10.765625 -3.640625 Z M 10.765625 -3.640625 "/></g></g></g></svg>